PathFileType  4	(X/Y/Z) C:\Users\wagnerel85475\Documents\Thesis\opencap-core\Data\3375ffbc-daeb-4a43-b4f7-ac9899cd4c71\MarkerData\PreAugmentation
DataRate	CameraRate	NumFrames	NumMarkers	Units	OrigDataRate	OrigDataStartFrame	OrigNumFrames
60.0	60.0	9	20	m	60.0	263	300
Frame#	Time	Neck			RShoulder			RElbow			RWrist			LShoulder			LElbow			LWrist			midHip			RHip			RKnee			RAnkle			LHip			LKnee			LAnkle			LBigToe			LSmallToe			LHeel			RBigToe			RSmallToe			RHeel			
		X1	Y1	Z1	X2	Y2	Z2	X3	Y3	Z3	X4	Y4	Z4	X5	Y5	Z5	X6	Y6	Z6	X7	Y7	Z7	X8	Y8	Z8	X9	Y9	Z9	X10	Y10	Z10	X11	Y11	Z11	X12	Y12	Z12	X13	Y13	Z13	X14	Y14	Z14	X15	Y15	Z15	X16	Y16	Z16	X17	Y17	Z17	X18	Y18	Z18	X19	Y19	Z19	X20	Y20	Z20	

263	4.3666667	0.7806200	1.3637400	-0.1845000	0.8024600	1.3692300	0.0072000	0.7289300	1.0650700	0.0849800	0.8430100	0.7720500	0.1379000	0.7856000	1.3539100	-0.3739100	0.7157300	1.0559700	-0.4273900	0.8182900	0.7561900	-0.4554300	0.8365000	0.8225700	-0.1710500	0.8291100	0.8251500	-0.0514200	0.7488800	0.3435600	-0.0319800	0.6862200	-0.1808000	0.0042200	0.8591200	0.8220100	-0.2864600	0.7484600	0.3475900	-0.2758100	0.6871300	-0.1742900	-0.3152800	0.8948900	-0.2273800	-0.3480800	0.8367400	-0.2241900	-0.3869000	0.6491100	-0.2201100	-0.3089100	0.8919300	-0.2356300	0.0466300	0.8360700	-0.2311800	0.0868100	0.6271100	-0.2308000	-0.0163400
264	4.3833333	0.7806700	1.3637400	-0.1845600	0.8026100	1.3692200	0.0071900	0.7290200	1.0651500	0.0850000	0.8430700	0.7719000	0.1378100	0.7855100	1.3501100	-0.3737600	0.7158800	1.0557300	-0.4272700	0.8178700	0.7560800	-0.4552000	0.8363000	0.8223500	-0.1711200	0.8290100	0.8251200	-0.0514400	0.7488900	0.3436500	-0.0318700	0.6862300	-0.1806100	0.0041800	0.8588700	0.8220100	-0.2863900	0.7476000	0.3437200	-0.2761000	0.6871400	-0.1744300	-0.3153000	0.8946200	-0.2275000	-0.3481800	0.8368500	-0.2242900	-0.3868800	0.6489300	-0.2199400	-0.3090300	0.8919200	-0.2355600	0.0466200	0.8363100	-0.2310200	0.0866400	0.6271300	-0.2308000	-0.0163500
265	4.4000000	0.7806600	1.3637600	-0.1844800	0.8025700	1.3692200	0.0072400	0.7290100	1.0650800	0.0850000	0.8430500	0.7720400	0.1379200	0.7855500	1.3539100	-0.3739200	0.7241800	1.0564300	-0.4232700	0.8345300	0.7582400	-0.4548400	0.8364700	0.8226800	-0.1710400	0.8291200	0.8252900	-0.0514100	0.7487100	0.3434200	-0.0319500	0.6862000	-0.1808300	0.0042100	0.8590900	0.8258000	-0.2863300	0.7483700	0.3477600	-0.2758400	0.6871900	-0.1742400	-0.3152600	0.8947600	-0.2308500	-0.3486600	0.8370700	-0.2274800	-0.3875000	0.6492500	-0.2200600	-0.3088700	0.8918600	-0.2356600	0.0466100	0.8271900	-0.2344300	0.0838500	0.6271300	-0.2308000	-0.0163500
266	4.4166667	0.7807500	1.3637600	-0.1845200	0.8027800	1.3692200	0.0072500	0.7291100	1.0651300	0.0850100	0.8430200	0.7718800	0.1378500	0.7853900	1.3538400	-0.3738400	0.7243500	1.0562600	-0.4231200	0.8257000	0.7570000	-0.4512100	0.8363900	0.8224100	-0.1711100	0.8291500	0.8251500	-0.0514200	0.7488200	0.3436300	-0.0319300	0.6862000	-0.1806100	0.0041700	0.8589300	0.8257900	-0.2862800	0.7482700	0.3483500	-0.2758900	0.6871700	-0.1744100	-0.3152900	0.8945000	-0.2309800	-0.3487600	0.8369000	-0.2242800	-0.3868700	0.6490300	-0.2199300	-0.3090000	0.8918100	-0.2355900	0.0465900	0.8273900	-0.2342600	0.0836700	0.6271100	-0.2307800	-0.0163400
267	4.4333333	0.7807200	1.3637600	-0.1844800	0.8026100	1.3692300	0.0072400	0.7290400	1.0650500	0.0850000	0.8429900	0.7720300	0.1379400	0.7855800	1.3539100	-0.3739000	0.7242000	1.0564800	-0.4232500	0.8260800	0.7571200	-0.4514200	0.8366300	0.8226500	-0.1710800	0.8292700	0.8252100	-0.0514400	0.7487000	0.3434800	-0.0319900	0.6861900	-0.1808000	0.0042000	0.8591600	0.8221400	-0.2865100	0.7483800	0.3479900	-0.2758500	0.6871500	-0.1742300	-0.3152700	0.8947600	-0.2308200	-0.3486700	0.8368100	-0.2241700	-0.3868800	0.6491700	-0.2200500	-0.3088900	0.8918600	-0.2356100	0.0465800	0.8272000	-0.2343800	0.0838400	0.6270700	-0.2308000	-0.0163400
268	4.4500000	0.7807400	1.3637600	-0.1845300	0.8027400	1.3692200	0.0072400	0.7290900	1.0650900	0.0850100	0.8430100	0.7718800	0.1378500	0.7854000	1.3538500	-0.3738500	0.7244000	1.0562500	-0.4231100	0.8257300	0.7570700	-0.4512100	0.8363900	0.8224300	-0.1711600	0.8291400	0.8251700	-0.0514600	0.7487800	0.3435900	-0.0319500	0.6862000	-0.1806200	0.0041700	0.8588900	0.8221200	-0.2864600	0.7483300	0.3483500	-0.2758700	0.6871300	-0.1743900	-0.3153000	0.8945400	-0.2309400	-0.3487400	0.8369600	-0.2242800	-0.3868600	0.6489300	-0.2199300	-0.3090300	0.8918100	-0.2355400	0.0465800	0.8273800	-0.2342600	0.0836600	0.6270900	-0.2308000	-0.0163400
269	4.4666667	0.7807100	1.3637500	-0.1844900	0.8025800	1.3692200	0.0072300	0.7290200	1.0650400	0.0850100	0.8429600	0.7720500	0.1379500	0.7857200	1.3501600	-0.3738200	0.7242200	1.0564700	-0.4232500	0.8255600	0.7608200	-0.4512000	0.8365800	0.8264700	-0.1709500	0.8291000	0.8254400	-0.0514600	0.7487100	0.3435900	-0.0319500	0.6861900	-0.1807900	0.0042100	0.8591600	0.8259200	-0.2863700	0.7483500	0.3479300	-0.2758600	0.6871800	-0.1742200	-0.3152600	0.8947600	-0.2308500	-0.3486800	0.8368000	-0.2241500	-0.3868800	0.6492100	-0.2199700	-0.3088500	0.8918100	-0.2356200	0.0465700	0.8271800	-0.2343900	0.0838400	0.6270500	-0.2308000	-0.0163400
270	4.4833333	0.7807500	1.3637500	-0.1845300	0.8027300	1.3692000	0.0072300	0.7290900	1.0650900	0.0850400	0.8428000	0.7756800	0.1380900	0.7854100	1.3538500	-0.3738600	0.7244500	1.0562900	-0.4231100	0.8341900	0.7582200	-0.4546200	0.8363800	0.8224700	-0.1711800	0.8291500	0.8252400	-0.0515200	0.7488800	0.3436300	-0.0319200	0.6861900	-0.1805800	0.0041700	0.8588800	0.8222100	-0.2864200	0.7482100	0.3485300	-0.2759300	0.6871600	-0.1744200	-0.3152800	0.8945600	-0.2309600	-0.3487700	0.8369200	-0.2242600	-0.3868900	0.6490300	-0.2198600	-0.3089600	0.8918200	-0.2355600	0.0465700	0.8273600	-0.2313600	0.0830400	0.6270500	-0.2307900	-0.0163400
271	4.5000000	0.7807300	1.3637300	-0.1845000	0.8025800	1.3692100	0.0072300	0.7290000	1.0650500	0.0850300	0.8427200	0.7758900	0.1382200	0.7857200	1.3501500	-0.3738200	0.7242900	1.0565200	-0.4232400	0.8344900	0.7582800	-0.4548100	0.8365000	0.8227900	-0.1710700	0.8291300	0.8253900	-0.0514700	0.7487400	0.3435800	-0.0319600	0.6861900	-0.1807700	0.0042000	0.8590100	0.8223000	-0.2864600	0.7483100	0.3483300	-0.2758900	0.6871700	-0.1742800	-0.3152700	0.8948000	-0.2308400	-0.3486900	0.8368300	-0.2241300	-0.3868800	0.6491900	-0.2200200	-0.3088500	0.8918500	-0.2356100	0.0465800	0.8272200	-0.2314700	0.0832400	0.6270400	-0.2307900	-0.0163400
